<svg xmlns="http://www.w3.org/2000/svg" width="385" height="385" fill="none" viewBox="0 0 385 385"><g clip-path="url(#clip0_535_11062)"><mask id="mask0_535_11062" style="mask-type:luminance" width="385" height="386" x="0" y="-6" maskUnits="userSpaceOnUse"><path fill="#fff" d="M346.446 -5.66211L0 32.8919L38.554 379.338L385 340.784L346.446 -5.66211Z"/></mask><mask id="mask1_535_11062" style="mask-type:luminance" width="385" height="386" x="0" y="-6" maskUnits="userSpaceOnUse"><path fill="#fff" d="M346.446 -5.66211L0 32.8919L38.554 379.338L385 340.784L346.446 -5.66211Z"/></mask><g mask="url(#mask1_535_11062)"><path fill="url(#paint0_linear_535_11062)" stroke="#12FA61" stroke-miterlimit="10" stroke-width=".25" d="M73.3401 313.916C73.649 314.225 73.9964 314.534 74.3048 314.843L86.4979 297.518C96.6077 277.646 100.543 259.51 100.659 244.076C100.505 235.819 99.3469 227.638 97.2635 219.69C95.797 214.905 94.7168 209.966 94.0221 204.988C94.0221 204.95 94.0221 204.873 94.0221 204.796C93.5592 201.477 93.2503 198.082 93.0963 194.686C90.974 139.971 133.496 93.0896 188.056 90.0026L187.67 89.6556C200.674 88.8449 219.619 91.7005 235.517 87.5333C251.993 82.8643 266.964 73.7967 278.848 61.2947C279.427 60.6774 280.083 60.1371 280.778 59.6742L291.968 43.8152C245.125 11.3261 183.31 2.41283 126.589 25.6029C37.5326 61.9509 -5.14343 163.663 31.2431 252.719C40.3493 274.983 53.5069 294.354 69.5588 310.289C70.7934 311.524 72.0285 312.72 73.3016 313.916H73.3401Z"/><path fill="url(#paint1_linear_535_11062)" stroke="#12FA61" stroke-miterlimit="10" stroke-width=".25" d="M300.149 73.951C299.879 74.7613 299.57 75.61 299.107 76.3818C288.573 96.099 284.097 125.888 285.062 137.656C286.644 157.219 292.625 169.914 290.773 184.885C292.162 239.176 249.717 285.285 195.581 288.257C195.581 288.257 195.504 288.257 195.465 288.257C183.542 289.029 182.153 287.871 171.234 288.372C148.699 289.376 124.66 298.791 107.991 316.386L96.8398 332.244C100.043 334.367 103.284 336.373 106.564 338.38C108.068 339.229 109.573 340.039 111.078 340.849C155.105 364.078 208.7 368.361 258.36 348.065C347.417 311.678 390.093 209.966 353.706 120.91C343.751 96.5623 328.895 75.6485 310.76 58.9023L300.149 73.951Z"/></g></g><defs><linearGradient id="paint0_linear_535_11062" x1="155.111" x2="155.111" y1="12.605" y2="314.843" gradientUnits="userSpaceOnUse"><stop stop-color="#04FF59"/><stop offset=".359" stop-color="#2BC35E" stop-opacity=".58"/><stop offset="1" stop-color="#00FF57" stop-opacity="0"/></linearGradient><linearGradient id="paint1_linear_535_11062" x1="231.768" x2="231.768" y1="58.902" y2="361.062" gradientUnits="userSpaceOnUse"><stop stop-color="#00FF57" stop-opacity="0"/><stop offset=".583" stop-color="#2BC35E" stop-opacity=".578"/><stop offset="1" stop-color="#04FF59"/><stop offset="1" stop-color="#04FF59"/></linearGradient><clipPath id="clip0_535_11062"><rect width="385" height="385" fill="#fff"/></clipPath></defs></svg>