<svg width="135" height="27" viewBox="0 0 135 27" fill="none" xmlns="http://www.w3.org/2000/svg">
<mask id="mask0_520_1584" style="mask-type:luminance" maskUnits="userSpaceOnUse" x="0" y="0" width="27" height="27">
<path d="M24.0695 0L0 2.67856L2.67856 26.748L26.748 24.0695L24.0695 0Z" fill="white"/>
</mask>
<g mask="url(#mask0_520_1584)">
<path d="M5.20751 22.1417C5.22897 22.1632 5.25311 22.1846 5.27453 22.2061L6.12166 21.0024C6.82404 19.6218 7.09747 18.3618 7.1055 17.2895C7.09477 16.7158 7.01434 16.1475 6.8696 15.5953C6.76771 15.2629 6.69267 14.9197 6.6444 14.5739C6.6444 14.5712 6.6444 14.5659 6.6444 14.5605C6.61224 14.33 6.59078 14.0941 6.58008 13.8582C6.43263 10.0568 9.38683 6.79968 13.1775 6.58521L13.1507 6.5611C14.0541 6.50478 15.3703 6.70317 16.4748 6.41365C17.6195 6.08927 18.6596 5.4593 19.4853 4.59071C19.5255 4.54783 19.5711 4.51029 19.6193 4.47813L20.3968 3.37632C17.1423 1.11913 12.8477 0.499869 8.90698 2.11101C2.71976 4.63631 -0.24517 11.7028 2.2828 17.89C2.91546 19.4368 3.82959 20.7826 4.9448 21.8897C5.03058 21.9755 5.11639 22.0586 5.20484 22.1417H5.20751Z" fill="url(#paint0_linear_520_1584)" stroke="white" stroke-width="0.212912" stroke-miterlimit="10"/>
<path d="M20.9653 5.46995C20.9466 5.52625 20.9251 5.58521 20.8929 5.63883C20.1611 7.0087 19.8501 9.07827 19.9171 9.8959C20.0271 11.255 20.4426 12.137 20.3139 13.1772C20.4104 16.949 17.4616 20.1525 13.7004 20.359C13.7004 20.359 13.6951 20.359 13.6924 20.359C12.864 20.4126 12.7675 20.3321 12.0089 20.367C10.4433 20.4367 8.77318 21.0908 7.61508 22.3132L6.84033 23.415C7.06286 23.5625 7.28803 23.7018 7.5159 23.8413C7.62043 23.9002 7.72499 23.9565 7.82955 24.0128C10.8883 25.6266 14.6119 25.9242 18.0621 24.5141C24.2493 21.9862 27.2142 14.9196 24.6862 8.73243C23.9946 7.04088 22.9625 5.58789 21.7025 4.42444L20.9653 5.46995Z" fill="url(#paint1_linear_520_1584)" stroke="white" stroke-width="0.212912" stroke-miterlimit="10"/>
</g>
<g clip-path="url(#clip0_520_1584)">
<path d="M73.7079 3.28711V6.45667H59.9431V11.5555H71.0128V14.7251H59.9431V19.9618H73.7079V23.1313H56.5371V6.45667H56.5356V3.28711H73.7079Z" fill="white"/>
<path d="M82.2827 3.29541H77.8252L93.791 23.1396H98.2615L90.2776 13.2243L98.2487 3.31055L93.791 3.31744L88.0458 10.4527L82.2827 3.29541Z" fill="white"/>
<path d="M86.8568 17.4702L84.6246 14.6947L77.8125 23.1547H82.2827L86.8568 17.4702Z" fill="white"/>
<path fill-rule="evenodd" clip-rule="evenodd" d="M56.6565 23.1313L40.6692 3.27881H36.4116V23.123H39.8177V7.5205L52.3776 23.1313H56.6565Z" fill="white"/>
<path d="M126.522 9.09377C126.424 8.27154 125.993 7.62966 125.242 7.17346C124.485 6.71194 123.507 6.48383 122.307 6.48383C121.464 6.48383 120.738 6.59526 120.135 6.81274C119.532 7.03553 119.065 7.33257 118.744 7.70922C118.425 8.08587 118.265 8.51558 118.252 8.99834C118.252 9.40149 118.363 9.75159 118.578 10.0434C118.794 10.3404 119.083 10.5898 119.458 10.7914C119.827 10.9982 120.239 11.168 120.689 11.3059C121.144 11.4438 121.6 11.5605 122.055 11.656L124.153 12.1069C124.996 12.2767 125.815 12.5048 126.596 12.7965C127.377 13.083 128.085 13.449 128.706 13.8893C129.328 14.3296 129.82 14.8601 130.183 15.4808C130.546 16.1014 130.73 16.8282 130.73 17.6663C130.73 18.7962 130.398 19.7883 129.727 20.6476C129.057 21.5017 128.091 22.1701 126.823 22.6529C125.562 23.1303 124.036 23.3743 122.239 23.3743C120.504 23.3743 118.991 23.1409 117.717 22.6741C116.438 22.2126 115.44 21.5335 114.72 20.6423C114.001 19.7511 113.613 18.6636 113.558 17.3852H117.545C117.6 18.0535 117.846 18.6106 118.265 19.0615C118.689 19.5071 119.243 19.836 119.92 20.0588C120.603 20.2763 121.366 20.3877 122.209 20.3877C123.089 20.3877 123.864 20.271 124.534 20.0429C125.199 19.8148 125.722 19.4965 126.097 19.0828C126.479 18.6742 126.67 18.1915 126.676 17.6398C126.67 17.1359 126.497 16.7167 126.165 16.3878C125.827 16.059 125.359 15.7831 124.762 15.5603C124.159 15.3376 123.458 15.1359 122.658 14.9609L120.111 14.3986C118.271 13.9901 116.812 13.3695 115.748 12.5366C114.678 11.7038 114.148 10.6004 114.148 9.21582C114.148 8.08062 114.505 7.08333 115.225 6.22923C115.939 5.37518 116.917 4.71206 118.154 4.23992C119.397 3.76253 120.8 3.52905 122.362 3.52905C123.95 3.52905 125.34 3.76253 126.54 4.23992C127.74 4.71206 128.682 5.36987 129.364 6.20798C130.047 7.04615 130.404 8.00631 130.423 9.09377H126.522Z" fill="white"/>
</g>
<path d="M104.473 3.52905H107.976V23.2967H104.473V3.52905Z" fill="white"/>
<defs>
<linearGradient id="paint0_linear_520_1584" x1="10.8886" y1="1.20801" x2="10.8886" y2="22.2061" gradientUnits="userSpaceOnUse">
<stop stop-color="white"/>
<stop offset="1" stop-color="white" stop-opacity="0.45"/>
</linearGradient>
<linearGradient id="paint1_linear_520_1584" x1="16.2145" y1="4.42444" x2="16.2145" y2="25.4171" gradientUnits="userSpaceOnUse">
<stop stop-color="white" stop-opacity="0.45"/>
<stop offset="1" stop-color="white"/>
</linearGradient>
<clipPath id="clip0_520_1584">
<rect width="98.5881" height="20.0179" fill="white" transform="translate(36.4116 3.27881)"/>
</clipPath>
</defs>
</svg>
